# xmcd
#
# Track frame offsets:
#	150
#	28233
#	45149
#	61265
#	79710
#
# Disc length: 1280 seconds
#
# Revision: 0
# Processed by: cddbd v1.5.1PL0 Copyright (c) Steve Scherf et al.
# Submitted via: dBpowerAMP V4.0
#
DISCID=3104fe05
DTITLE=Beyonce Knowles - L'oreal Paris Maxi
DYEAR=2004
DGENRE=R&B
TTITLE0=Baby Boy (Maurice's Nu Soul mix)
TTITLE1=Crazy in love (No rap version)
TTITLE2=What it ganna be (Album version)
TTITLE3=Work it out (Album version)
TTITLE4=Naive (HR Crump remix) featuring Solange and Da Brat
EXTD=
EXTT0=
EXTT1=
EXTT2=
EXTT3=
EXTT4=
PLAYORDER=
